<svg width="53" height="50" viewBox="0 0 53 50" fill="none" xmlns="http://www.w3.org/2000/svg">
<path d="M48.6273 29.7277C45.1504 29.7537 41.6735 29.7393 38.1967 29.7364C34.3869 29.7364 31.5233 32.5595 31.5204 36.3336C31.5175 39.1899 31.5335 42.049 31.516 44.9053C31.5014 47.0327 30.3186 48.5091 28.3356 48.9363C28.1005 48.9854 27.8552 48.984 27.5281 49.0143V48.2522C27.5281 44.1995 27.5237 40.1453 27.5281 36.0926C27.5368 30.471 32.1994 25.8482 37.8813 25.8352C42.5015 25.8251 47.1217 25.8323 51.7434 25.8323H52.4517C52.5261 27.9626 50.7972 29.7104 48.6258 29.7277H48.6273Z" fill="#C10100"/>
<path d="M42.1904 35.5268C39.3546 35.6769 36.5071 35.5658 33.61 35.5658C33.4742 34.8442 33.74 34.1976 34.1123 33.5957C34.8439 32.4137 35.9508 31.7512 37.3322 31.7224C39.9314 31.6646 42.5321 31.7036 45.1314 31.7065C45.1942 31.7065 45.2555 31.7454 45.3095 31.7628C45.5607 33.4153 44.0523 35.4287 42.189 35.5283L42.1904 35.5268Z" fill="#F99F00"/>
<path d="M35.8325 41.9451C35.8106 41.9509 35.7887 41.9523 35.7668 41.9552C33.7064 42.3983 33.5414 42.2698 33.5414 40.242V38.1724H38.7632C39.0129 39.7513 37.6067 41.5381 35.8325 41.9451Z" fill="#F99F00"/>
<path d="M3.82672 29.7277C7.30358 29.7537 10.7804 29.7393 14.2573 29.7364C18.0671 29.7364 20.9307 32.5595 20.9336 36.3336C20.9365 39.1899 20.9204 42.049 20.938 44.9053C20.9526 47.0327 22.1354 48.5091 24.1184 48.9363C24.3535 48.9854 24.5988 48.984 24.9259 49.0143V48.2522C24.9259 44.1995 24.9303 40.1453 24.9259 36.0926C24.9171 30.471 20.2546 25.8482 14.5727 25.8352C9.95248 25.8251 5.33224 25.8323 0.710542 25.8323H0.00231867C-0.0721542 27.9626 1.65678 29.7104 3.82818 29.7277H3.82672Z" fill="#C10100"/>
<path d="M9.72172 36.0623C12.5575 36.2124 15.405 36.1013 18.3022 36.1013C18.438 35.3796 18.1722 34.733 17.7998 34.1312C17.0682 32.9491 15.9614 32.2867 14.58 32.2578C11.9807 32.2001 9.38002 32.239 6.78077 32.2419C6.71798 32.2419 6.65665 32.2809 6.60262 32.2982C6.35145 33.9508 7.8599 35.9641 9.72318 36.0637L9.72172 36.0623Z" fill="#F99F00"/>
<path d="M15.5379 41.9451C15.5598 41.9509 15.5817 41.9523 15.6036 41.9552C17.664 42.3983 17.829 42.2698 17.829 40.242V38.1724H12.6072C12.3575 39.7513 13.7637 41.5381 15.5379 41.9451Z" fill="#F99F00"/>
<path d="M3.82672 19.3607C7.30358 19.3347 10.7804 19.3491 14.2573 19.352C18.0671 19.352 20.9307 16.5289 20.9336 12.7548C20.9365 9.89851 20.9204 7.03937 20.938 4.18312C20.9526 2.05573 22.1354 0.579251 24.1184 0.15204C24.3535 0.102969 24.5988 0.104413 24.9259 0.0741043V0.836156C24.9259 4.88889 24.9303 8.94306 24.9259 12.9958C24.9171 18.6174 20.2546 23.2402 14.5727 23.2532C9.95248 23.2633 5.33224 23.2561 0.710542 23.2561H0.00231867C-0.0721542 21.1258 1.65678 19.378 3.82818 19.3607H3.82672Z" fill="#C10100"/>
<path d="M9.72172 13.0261C12.5575 12.876 15.405 12.9871 18.3022 12.9871C18.438 13.7088 18.1722 14.3554 17.7998 14.9572C17.0682 16.1393 15.9614 16.8017 14.58 16.8306C11.9807 16.8883 9.38002 16.8493 6.78077 16.8465C6.71798 16.8465 6.65665 16.8075 6.60262 16.7902C6.35145 15.1376 7.8599 13.1242 9.72318 13.0247L9.72172 13.0261Z" fill="#F99F00"/>
<path d="M16.0798 6.60784C16.1017 6.60206 16.1236 6.60062 16.1455 6.59774C18.2059 6.15465 18.3709 6.2831 18.3709 8.31091V10.3806H13.1491C12.8994 8.80163 14.3056 7.01484 16.0798 6.60784Z" fill="#F99F00"/>
<path d="M48.6273 19.3607C45.1504 19.3347 41.6735 19.3491 38.1967 19.352C34.3869 19.352 31.5233 16.5289 31.5204 12.7548C31.5175 9.89851 31.5335 7.03937 31.516 4.18312C31.5014 2.05573 30.3186 0.579251 28.3356 0.15204C28.1005 0.102969 27.8552 0.104413 27.5281 0.0741043V0.836156C27.5281 4.88889 27.5237 8.94306 27.5281 12.9958C27.5368 18.6174 32.1994 23.2402 37.8813 23.2532C42.5015 23.2633 47.1217 23.2561 51.7434 23.2561H52.4517C52.5261 21.1258 50.7972 19.378 48.6258 19.3607H48.6273Z" fill="#C10100"/>
<path d="M42.7337 13.0261C39.8978 12.876 37.0504 12.9871 34.1532 12.9871C34.0174 13.7088 34.2832 14.3554 34.6555 14.9572C35.3871 16.1393 36.494 16.8017 37.8754 16.8306C40.4746 16.8883 43.0754 16.8493 45.6746 16.8465C45.7374 16.8465 45.7987 16.8075 45.8527 16.7902C46.1039 15.1376 44.5955 13.1242 42.7322 13.0247L42.7337 13.0261Z" fill="#F99F00"/>
<path d="M36.3743 6.60784C36.3524 6.60206 36.3305 6.60062 36.3086 6.59774C34.2481 6.15465 34.0831 6.2831 34.0831 8.31091V10.3806H39.305C39.5547 8.80163 38.1485 7.01484 36.3743 6.60784Z" fill="#F99F00"/>
<path d="M31.7263 24.5449C30.2076 24.5449 28.8321 25.1525 27.8376 26.1369C26.8417 27.1212 26.227 28.4793 26.227 29.9803C26.227 26.9783 23.765 24.5449 20.7277 24.5449C22.2463 24.5449 23.6219 23.9373 24.6163 22.953C25.6122 21.9687 26.227 20.6105 26.227 19.1095C26.227 20.612 26.8417 21.9701 27.8376 22.953C28.8335 23.9373 30.2091 24.5449 31.7263 24.5449Z" fill="#F99F00"/>
</svg>
